HIERARCHY
ROOT Haolin_28_06:Solving:Hips
{
	OFFSET 0.000000 0.000000 0.000000
	CHANNELS 6 Xposition Yposition Zposition Xrotation Yrotation Zrotation
	JOINT Haolin_28_06:Solving:Spine
	{
		OFFSET 0.000000 -12.181966 2.015561
		CHANNELS 6 Xposition Yposition Zposition Xrotation Yrotation Zrotation
		JOINT Haolin_28_06:Solving:Spine1
		{
			OFFSET 0.000000 -8.890296 1.567602
			CHANNELS 6 Xposition Yposition Zposition Xrotation Yrotation Zrotation
			JOINT Haolin_28_06:Solving:Spine2
			{
				OFFSET 0.000000 -8.993092 0.786796
				CHANNELS 6 Xposition Yposition Zposition Xrotation Yrotation Zrotation
				JOINT Haolin_28_06:Solving:Spine3
				{
					OFFSET 0.000000 -9.027443 0.000000
					CHANNELS 6 Xposition Yposition Zposition Xrotation Yrotation Zrotation
					JOINT Haolin_28_06:Solving:Neck
					{
						OFFSET 0.000000 -11.606712 -1.160669
						CHANNELS 6 Xposition Yposition Zposition Xrotation Yrotation Zrotation
						JOINT Haolin_28_06:Solving:Neck1
						{
							OFFSET 0.000000 -7.471592 -0.653680
							CHANNELS 6 Xposition Yposition Zposition Xrotation Yrotation Zrotation
							JOINT Haolin_28_06:Solving:Head
							{
								OFFSET 0.000000 -7.386181 -1.302382
								CHANNELS 6 Xposition Yposition Zposition Xrotation Yrotation Zrotation
								JOINT Haolin_28_06:Solving:HeadEnd
								{
									OFFSET 0.000000 -9.728081 0.000002
									CHANNELS 6 Xposition Yposition Zposition Xrotation Yrotation Zrotation
									End Site
									{
										OFFSET 0.000000 -9.728081 0.000002
									}
								}
							}
						}
					}
					JOINT Haolin_28_06:Solving:RightShoulder
					{
						OFFSET 0.000000 -8.290508 -5.270916
						CHANNELS 6 Xposition Yposition Zposition Xrotation Yrotation Zrotation
						JOINT Haolin_28_06:Solving:RightArm
						{
							OFFSET -19.261074 -0.000008 0.000000
							CHANNELS 6 Xposition Yposition Zposition Xrotation Yrotation Zrotation
							JOINT Haolin_28_06:Solving:RightForeArm
							{
								OFFSET -30.691700 -0.000011 0.000000
								CHANNELS 6 Xposition Yposition Zposition Xrotation Yrotation Zrotation
								JOINT Haolin_28_06:Solving:RightHand
								{
									OFFSET -20.216934 -0.000008 0.000000
									CHANNELS 6 Xposition Yposition Zposition Xrotation Yrotation Zrotation
									JOINT Haolin_28_06:Solving:RightHandThumb1
									{
										OFFSET -4.948814 2.881329 -3.679893
										CHANNELS 6 Xposition Yposition Zposition Xrotation Yrotation Zrotation
										End Site
										{
											OFFSET -7.039886 -0.000004 -7.104978
										}
									}
									JOINT Haolin_28_06:Solving:RightHandMiddle1
									{
										OFFSET -13.196846 -0.000004 0.084595
										CHANNELS 6 Xposition Yposition Zposition Xrotation Yrotation Zrotation
										End Site
										{
											OFFSET -10.002037 -0.000004 0.000000
										}
									}
								}
							}
						}
					}
					JOINT Haolin_28_06:Solving:LeftShoulder
					{
						OFFSET 0.000000 -8.290508 -5.270916
						CHANNELS 6 Xposition Yposition Zposition Xrotation Yrotation Zrotation
						JOINT Haolin_28_06:Solving:LeftArm
						{
							OFFSET 19.261074 -0.000008 0.000000
							CHANNELS 6 Xposition Yposition Zposition Xrotation Yrotation Zrotation
							JOINT Haolin_28_06:Solving:LeftForeArm
							{
								OFFSET 30.691700 -0.000011 0.000000
								CHANNELS 6 Xposition Yposition Zposition Xrotation Yrotation Zrotation
								JOINT Haolin_28_06:Solving:LeftHand
								{
									OFFSET 20.216934 -0.000008 0.000000
									CHANNELS 6 Xposition Yposition Zposition Xrotation Yrotation Zrotation
									JOINT Haolin_28_06:Solving:LeftHandThumb1
									{
										OFFSET 4.948814 2.881329 -3.679893
										CHANNELS 6 Xposition Yposition Zposition Xrotation Yrotation Zrotation
										End Site
										{
											OFFSET 7.039886 -0.000004 -7.104978
										}
									}
									JOINT Haolin_28_06:Solving:LeftHandMiddle1
									{
										OFFSET 13.196846 -0.000004 0.084595
										CHANNELS 6 Xposition Yposition Zposition Xrotation Yrotation Zrotation
										End Site
										{
											OFFSET 10.002037 -0.000004 0.000000
										}
									}
								}
							}
						}
					}
				}
			}
		}
	}
	JOINT Haolin_28_06:Solving:RightUpLeg
	{
		OFFSET -10.083070 0.000000 0.000000
		CHANNELS 6 Xposition Yposition Zposition Xrotation Yrotation Zrotation
		JOINT Haolin_28_06:Solving:RightLeg
		{
			OFFSET 0.000000 47.042522 -0.000008
			CHANNELS 6 Xposition Yposition Zposition Xrotation Yrotation Zrotation
			JOINT Haolin_28_06:Solving:RightFoot
			{
				OFFSET 0.000000 38.766415 -0.000006
				CHANNELS 6 Xposition Yposition Zposition Xrotation Yrotation Zrotation
				JOINT Haolin_28_06:Solving:RightForeFoot
				{
					OFFSET 0.000000 3.531212 -0.000000
					CHANNELS 6 Xposition Yposition Zposition Xrotation Yrotation Zrotation
					JOINT Haolin_28_06:Solving:RightToeBase
					{
						OFFSET 0.000000 0.000000 -13.829352
						CHANNELS 6 Xposition Yposition Zposition Xrotation Yrotation Zrotation
						JOINT Haolin_28_06:Solving:RightToeBaseEnd
						{
							OFFSET 0.000000 0.000000 -4.034167
							CHANNELS 6 Xposition Yposition Zposition Xrotation Yrotation Zrotation
							End Site
							{
								OFFSET 0.000000 -4.034164 0.000004
							}
						}
					}
				}
			}
		}
	}
	JOINT Haolin_28_06:Solving:LeftUpLeg
	{
		OFFSET 10.083070 0.000000 0.000000
		CHANNELS 6 Xposition Yposition Zposition Xrotation Yrotation Zrotation
		JOINT Haolin_28_06:Solving:LeftLeg
		{
			OFFSET 0.000000 47.042522 -0.000008
			CHANNELS 6 Xposition Yposition Zposition Xrotation Yrotation Zrotation
			JOINT Haolin_28_06:Solving:LeftFoot
			{
				OFFSET 0.000000 38.766415 -0.000006
				CHANNELS 6 Xposition Yposition Zposition Xrotation Yrotation Zrotation
				JOINT Haolin_28_06:Solving:LeftForeFoot
				{
					OFFSET 0.000000 3.531212 -0.000000
					CHANNELS 6 Xposition Yposition Zposition Xrotation Yrotation Zrotation
					JOINT Haolin_28_06:Solving:LeftToeBase
					{
						OFFSET 0.000000 0.000000 -13.829352
						CHANNELS 6 Xposition Yposition Zposition Xrotation Yrotation Zrotation
						JOINT Haolin_28_06:Solving:LeftToeBaseEnd
						{
							OFFSET 0.000000 0.000000 -4.855067
							CHANNELS 6 Xposition Yposition Zposition Xrotation Yrotation Zrotation
							End Site
							{
								OFFSET 0.000000 -4.855064 0.000004
							}
						}
					}
				}
			}
		}
	}
}
MOTION
Frames: 4
Frame Time: 0.041667
-37.889271 -159.557800 -94.148994 93.800258 1.734943 -0.693492 0.000002 -12.181980 2.015563 20.742229 -0.020375 -0.429713 -0.000004 -8.890284 1.567647 1.980754 -0.115271 -0.199702 -0.000003 -8.993093 0.786837 1.364393 -2.031063 0.729483 0.000000 -9.027447 0.000007 3.276233 -1.248748 2.145593 -0.000001 -11.606719 -1.160688 -7.026452 3.958787 -1.326081 0.000001 -7.471597 -0.653655 -1.274306 3.519647 -1.318051 0.000001 -7.386191 -1.302393 3.708568 0.556942 -2.208353 -0.000002 -9.728081 0.000070 0.000003 -0.000001 0.000000 0.000005 -8.290524 -5.270934 -0.000011 16.056274 10.076733 -19.261040 -0.000004 0.000004 -26.103170 -46.835027 -86.178348 -30.691734 -0.000006 0.000050 -12.224725 -15.177821 -3.246611 -20.216930 -0.000011 -0.000011 1.445793 -14.154249 5.892819 -4.948788 2.881313 -3.679918 0.000001 0.000002 -0.000006 -13.196848 -0.000020 0.084543 0.000006 -0.000002 -0.000002 0.000002 -8.290550 -5.270910 -0.000003 -7.874584 -12.824151 19.261080 0.000019 -0.000001 -30.239498 29.774034 84.980012 30.691689 -0.000018 0.000035 -6.551378 13.678015 1.555583 20.216904 -0.000014 0.000002 -0.056331 -0.605287 -5.317726 4.948804 2.881320 -3.679859 -0.000001 -0.000003 -0.000004 13.196882 -0.000015 0.084590 -0.000001 0.000004 -0.000002 -10.083069 -0.000011 -0.000014 -8.593391 16.335787 2.412717 -0.000016 47.042534 -0.000026 8.346653 -0.000002 -0.000001 0.000007 38.766422 -0.000025 4.058200 0.269006 5.002658 0.000009 3.531212 -0.000033 -0.000001 -0.000005 0.000000 -0.000018 0.000009 -13.829363 0.774353 0.000002 -0.000001 -0.000007 0.000007 -4.034172 -0.000002 0.000002 0.000000 10.083068 -0.000008 0.000004 -12.274625 -11.289259 -2.140235 0.000000 47.042526 -0.000055 16.827891 -0.000000 -0.000001 0.000003 38.766403 -0.000021 0.841397 -5.629981 1.803016 0.000002 3.531197 -0.000024 -0.000001 0.000002 0.000000 0.000001 0.000001 -13.829350 -0.393500 -0.000002 -0.000000 -0.000012 0.000008 -4.855065 0.000000 -0.000001 0.000000 
-37.841026 -159.905487 -94.070053 94.325090 2.010790 -0.568998 0.000005 -12.181951 2.015572 20.934303 0.018767 -0.366196 -0.000000 -8.890313 1.567588 2.127870 -0.122373 -0.176913 -0.000006 -8.993100 0.786746 1.555220 -2.086562 0.759885 0.000005 -9.027444 0.000005 3.279713 -1.259828 2.146663 0.000010 -11.606718 -1.160633 -7.100381 3.936939 -1.396579 0.000005 -7.471599 -0.653730 -1.531886 3.442846 -1.405728 -0.000007 -7.386225 -1.302377 3.241177 0.578383 -2.285794 0.000008 -9.728119 0.000021 0.000002 0.000000 0.000000 0.000012 -8.290512 -5.270892 -0.000003 15.787089 9.931495 -19.261068 -0.000008 0.000009 -27.456370 -47.038321 -87.308409 -30.691719 -0.000001 0.000024 -11.948700 -15.097855 -3.154979 -20.216940 -0.000028 -0.000000 1.554580 -14.284572 6.276827 -4.948788 2.881320 -3.679875 0.000002 -0.000000 0.000004 -13.196827 -0.000036 0.084617 0.000002 -0.000000 0.000004 0.000012 -8.290508 -5.270892 0.000001 -7.637747 -12.892537 19.261086 -0.000008 -0.000005 -31.081124 30.336528 86.043609 30.691715 -0.000025 0.000002 -6.537057 13.802115 1.565958 20.216942 -0.000029 -0.000039 -0.047075 -0.481454 -5.584211 4.948774 2.881337 -3.679857 0.000001 -0.000005 -0.000003 13.196828 -0.000011 0.084621 0.000001 -0.000001 -0.000003 -10.083069 0.000015 0.000026 -9.941034 16.042934 2.435845 0.000025 47.042519 -0.000017 9.594744 0.000000 -0.000001 0.000008 38.766418 -0.000026 3.751567 0.303417 4.762288 -0.000012 3.531197 -0.000005 -0.000001 -0.000005 0.000000 -0.000018 -0.000010 -13.829323 0.672801 0.000001 0.000001 0.000009 -0.000008 -4.034166 -0.000001 0.000003 -0.000000 10.083071 0.000015 0.000012 -13.247140 -11.266353 -2.319793 0.000003 47.042542 -0.000014 17.332522 0.000001 -0.000001 -0.000001 38.766430 -0.000028 0.553660 -5.963965 1.945864 -0.000003 3.531212 0.000020 0.000001 -0.000002 -0.000000 0.000002 0.000013 -13.829333 -0.213087 0.000008 0.000000 -0.000006 -0.000000 -4.855072 -0.000001 -0.000002 0.000000 
-37.783390 -160.246613 -93.985001 94.827068 2.299747 -0.463851 0.000010 -12.181983 2.015586 21.138689 0.055682 -0.283975 0.000001 -8.890303 1.567567 2.288081 -0.128046 -0.157398 -0.000008 -8.993075 0.786812 1.749617 -2.132214 0.769384 -0.000002 -9.027425 0.000010 3.282245 -1.273908 2.143859 -0.000009 -11.606745 -1.160671 -7.196812 3.902802 -1.420516 -0.000002 -7.471580 -0.653620 -1.731280 3.371457 -1.487655 -0.000004 -7.386189 -1.302369 2.756081 0.598744 -2.352526 0.000005 -9.728081 -0.000016 0.000002 0.000001 -0.000000 -0.000006 -8.290539 -5.270913 -0.000008 15.574090 9.771504 -19.261082 -0.000008 0.000005 -28.795722 -47.724427 -88.301744 -30.691679 -0.000010 0.000002 -11.943052 -15.004761 -3.134491 -20.216923 0.000004 0.000013 1.725870 -14.531101 6.847814 -4.948789 2.881336 -3.679874 -0.000003 0.000009 0.000004 -13.196853 -0.000012 0.084585 -0.000001 0.000002 0.000001 -0.000005 -8.290539 -5.270913 0.000008 -7.417623 -12.915962 19.261084 0.000016 0.000042 -31.921425 31.280050 87.016105 30.691708 -0.000019 -0.000003 -6.837465 13.931404 1.653585 20.216913 -0.000027 -0.000000 -0.034004 -0.323693 -5.995935 4.948801 2.881320 -3.679952 -0.000001 0.000002 -0.000007 13.196830 -0.000001 0.084551 0.000001 0.000001 -0.000001 -10.083072 -0.000026 0.000032 -11.299116 15.756290 2.493893 0.000018 47.042511 0.000002 10.899240 0.000003 0.000000 0.000023 38.766407 -0.000007 3.441432 0.265796 4.497647 -0.000015 3.531219 -0.000003 -0.000001 -0.000001 0.000001 0.000006 -0.000002 -13.829391 0.533463 0.000002 -0.000000 -0.000009 -0.000000 -4.034165 -0.000000 -0.000000 0.000002 10.083074 -0.000038 0.000008 -14.167171 -11.215571 -2.479029 0.000006 47.042538 0.000028 17.794854 0.000002 -0.000001 -0.000004 38.766407 0.000029 0.259061 -6.327494 2.158872 -0.000001 3.531212 -0.000033 -0.000001 0.000001 0.000000 -0.000007 0.000004 -13.829387 -0.027452 0.000002 0.000000 -0.000012 -0.000007 -4.855120 0.000001 -0.000002 -0.000000 
-37.742561 -160.585831 -93.893265 95.322571 2.579986 -0.347218 0.000001 -12.181958 2.015576 21.322823 0.098883 -0.195885 0.000006 -8.890281 1.567582 2.449709 -0.130533 -0.141645 0.000001 -8.993103 0.786833 1.971662 -2.165221 0.767236 0.000001 -9.027437 0.000054 3.284266 -1.284621 2.138976 0.000005 -11.606717 -1.160687 -7.244863 3.847824 -1.441783 0.000006 -7.471593 -0.653678 -1.958179 3.265866 -1.563577 -0.000005 -7.386200 -1.302334 2.275475 0.614869 -2.400884 0.000001 -9.728096 0.000043 0.000004 -0.000001 0.000001 -0.000005 -8.290497 -5.270955 -0.000005 15.358917 9.593898 -19.261076 0.000011 -0.000000 -30.162679 -48.468327 -89.249037 -30.691711 0.000008 0.000019 -12.175189 -15.018203 -3.199930 -20.216919 -0.000022 -0.000013 1.896931 -14.602190 7.484227 -4.948790 2.881344 -3.679836 -0.000004 0.000007 0.000003 -13.196829 0.000020 0.084602 -0.000003 -0.000002 0.000002 -0.000008 -8.290501 -5.270955 -0.000006 -7.216070 -12.935927 19.261086 -0.000029 -0.000004 -32.914627 32.167975 88.024288 30.691717 0.000009 0.000034 -6.945207 13.876516 1.673400 20.216927 -0.000024 0.000004 -0.009013 -0.079748 -6.448137 4.948795 2.881324 -3.679866 0.000002 -0.000002 -0.000005 13.196827 0.000002 0.084630 -0.000000 -0.000002 -0.000005 -10.083056 0.000010 0.000036 -12.672759 15.512461 2.539573 0.000006 47.042522 -0.000032 12.256002 -0.000002 -0.000001 0.000011 38.766430 -0.000010 3.160602 0.171438 4.185977 0.000003 3.531204 -0.000015 0.000000 -0.000001 -0.000000 -0.000022 0.000004 -13.829323 0.276122 -0.000000 0.000001 -0.000016 0.000016 -4.034155 0.000001 -0.000001 0.000000 10.083073 0.000009 0.000037 -15.117563 -11.206862 -2.681638 0.000005 47.042534 0.000011 18.319076 0.000001 -0.000001 0.000003 38.766422 -0.000012 -0.062109 -6.617707 2.374836 0.000003 3.531204 -0.000008 -0.000001 -0.000002 -0.000000 0.000011 0.000004 -13.829347 0.162994 -0.000002 0.000000 0.000005 -0.000008 -4.855073 -0.000001 -0.000002 0.000000 
